<svg xmlns="http://www.w3.org/2000/svg" xmlns:xlink="http://www.w3.org/1999/xlink" id="visual" width="900" height="600" version="1.1" viewBox="0 0 900 600"><rect width="900" height="600" x="0" y="0" fill="#023"/><path fill="#60F" stroke-linecap="round" stroke-linejoin="miter" d="M0 418L21.5 417.2C43 416.3 86 414.7 128.8 411.5C171.7 408.3 214.3 403.7 257.2 416.2C300 428.7 343 458.3 385.8 458.5C428.7 458.7 471.3 429.3 514.2 418C557 406.7 600 413.3 642.8 419C685.7 424.7 728.3 429.3 771.2 422.2C814 415 857 396 878.5 386.5L900 377L900 601L878.5 601C857 601 814 601 771.2 601C728.3 601 685.7 601 642.8 601C600 601 557 601 514.2 601C471.3 601 428.7 601 385.8 601C343 601 300 601 257.2 601C214.3 601 171.7 601 128.8 601C86 601 43 601 21.5 601L0 601Z"/></svg>